<?xml version="1.0" encoding="utf-8"?>
<!-- Generator: Adobe Illustrator 16.0.0, SVG Export Plug-In . SVG Version: 6.00 Build 0)  -->
<!DOCTYPE svg PUBLIC "-//W3C//DTD SVG 1.1//EN" "http://www.w3.org/Graphics/SVG/1.1/DTD/svg11.dtd">
<svg version="1.1" id="Layer_1" xmlns="http://www.w3.org/2000/svg" xmlns:xlink="http://www.w3.org/1999/xlink" x="0px" y="0px"
	 width="30px" height="30px" viewBox="0 0 50 50" enable-background="new 0 0 50 50" xml:space="preserve">
<g>
	<path fill-rule="evenodd" clip-rule="evenodd" fill="#FFFFFF" d="M0.002,50.237c-0.125-9.648,5.205-18.194,13.294-20.63
		c0.824-0.249,1.574-0.44,2.473,0.2c5.724,4.076,11.476,3.981,17.231-0.035c0.602-0.419,1.489-0.644,2.181-0.517
		c8.531,1.564,14.823,10.05,14.813,19.878c0,0.369,0.012,0.737-0.001,1.104"/>
	<path fill-rule="evenodd" clip-rule="evenodd" fill="#FFFFFF" d="M24.291,30.427c-7.402-0.003-13.453-6.852-13.421-15.19
		C10.902,6.873,16.943,0.11,24.371,0.125c7.308,0.014,13.321,6.826,13.354,15.125C37.758,23.586,31.7,30.431,24.291,30.427z"/>
</g>
</svg>
