<?xml version="1.0" encoding="utf-8"?>
<!-- Generator: Adobe Illustrator 16.0.0, SVG Export Plug-In . SVG Version: 6.00 Build 0)  -->
<!DOCTYPE svg PUBLIC "-//W3C//DTD SVG 1.1//EN" "http://www.w3.org/Graphics/SVG/1.1/DTD/svg11.dtd">
<svg version="1.1" id="Layer_1" xmlns="http://www.w3.org/2000/svg" xmlns:xlink="http://www.w3.org/1999/xlink" x="0px" y="0px"
	 width="30px" height="30px" viewBox="5.57 5.223 50 50" enable-background="new 5.57 5.223 50 50" xml:space="preserve">
<path fill="#FFFFFF" d="M55.57,34.726V25.72l-5.625-0.932c-0.313-1.242-0.937-2.484-1.875-4.348l3.437-4.658L44.946,9.26
	l-4.688,3.417c-1.563-0.933-3.125-1.554-4.375-1.864l-0.625-5.59h-9.063l-0.938,5.59c-1.563,0.311-2.813,0.932-4.375,1.864
	L16.195,9.26l-6.563,6.522l3.125,4.658c-0.938,1.553-1.25,2.795-1.875,4.348L5.57,25.409v9.006l5.625,0.932
	c0.313,1.553,0.937,2.796,1.875,4.349l-3.125,4.658l6.563,6.521l4.688-3.105c1.25,0.621,2.813,1.242,4.375,1.863l0.938,5.59h9.375
	l0.937-5.59c1.563-0.311,2.813-0.932,4.375-1.863l4.688,3.416l6.562-6.521l-3.437-4.658c0.937-1.553,1.562-3.106,1.875-4.348
	L55.57,34.726z M30.57,39.385c-5.313,0-9.375-4.038-9.375-9.317s4.063-9.316,9.375-9.316s9.375,4.037,9.375,9.316
	S35.883,39.385,30.57,39.385z"/>
</svg>
